<?xml version="1.0" encoding="iso-8859-1"?>
<!-- Generator: Adobe Illustrator 19.0.0, SVG Export Plug-In . SVG Version: 6.00 Build 0)  -->
<svg version="1.1" id="Layer_1" xmlns="http://www.w3.org/2000/svg" xmlns:xlink="http://www.w3.org/1999/xlink" x="0px" y="0px"
	 viewBox="0 0 512 512" style="enable-background:new 0 0 512 512;" xml:space="preserve">
<g transform="translate(1 1)">
	<g>
		<path style="fill:#FFA800;" d="M502.467,348.867h-281.6v-307.2c0-18.773,15.36-34.133,34.133-34.133h213.333
			c18.773,0,34.133,15.36,34.133,34.133V348.867z"/>
		<path style="fill:#FFA800;" d="M468.333,417.133H255c-18.773,0-34.133-15.36-34.133-34.133v-34.133h281.6V383
			C502.467,401.773,487.107,417.133,468.333,417.133"/>
	</g>
	<g>
		<path style="fill:#FFFFFF;" d="M289.133,348.867H7.533v-307.2c0-18.773,15.36-34.133,34.133-34.133H255
			c18.773,0,34.133,15.36,34.133,34.133V348.867z"/>
		<path style="fill:#FFFFFF;" d="M255,417.133H41.667c-18.773,0-34.133-15.36-34.133-34.133v-34.133h281.6V383
			C289.133,401.773,273.773,417.133,255,417.133"/>
	</g>
	<g>
		<path style="fill:#FFE100;" d="M476.867,348.867H33.133v-307.2c0-18.773,15.36-34.133,34.133-34.133h375.467
			c18.773,0,34.133,15.36,34.133,34.133V348.867z"/>
		<path style="fill:#FFE100;" d="M442.733,417.133H67.267c-18.773,0-34.133-15.36-34.133-34.133v-34.133h443.733V383
			C476.867,401.773,461.507,417.133,442.733,417.133"/>
	</g>
	<path style="fill:#3DB9F9;" d="M383,178.2c0,70.827-57.173,128-128,128s-128-57.173-128-128s57.173-128,128-128
		S383,107.373,383,178.2"/>
	<path style="fill:#63D3FD;" d="M357.4,182.467c0,68.267-51.2,123.733-115.2,123.733S127,250.733,127,182.467
		S178.2,58.733,242.2,58.733S357.4,114.2,357.4,182.467"/>
	<path d="M331.8,511H178.2c-2.56,0-5.12-0.853-6.827-3.413c-1.707-2.56-1.707-5.12-1.707-7.68l25.6-85.333
		c0.853-3.413,4.267-5.973,8.533-5.973h102.4c3.413,0,6.827,2.56,8.533,5.973l25.6,85.333c0.853,2.56,0,5.12-1.707,7.68
		C336.92,510.147,334.36,511,331.8,511z M189.293,493.933h130.56l-20.48-68.267h-89.6L189.293,493.933z"/>
	<path d="M348.867,511H161.133c-5.12,0-8.533-3.413-8.533-8.533c0-5.12,3.413-8.533,8.533-8.533h187.733
		c5.12,0,8.533,3.413,8.533,8.533C357.4,507.587,353.987,511,348.867,511z"/>
	<path d="M502.467,357.4H7.533c-5.12,0-8.533-3.413-8.533-8.533v-307.2C-1,17.773,17.773-1,41.667-1h426.667
		C492.227-1,511,17.773,511,41.667v307.2C511,353.987,507.587,357.4,502.467,357.4z M16.067,340.333h477.867V41.667
		c0-14.507-11.093-25.6-25.6-25.6H41.667c-14.507,0-25.6,11.093-25.6,25.6V340.333z"/>
	<path d="M468.333,425.667H41.667C17.773,425.667-1,406.893-1,383v-34.133c0-5.12,3.413-8.533,8.533-8.533h494.933
		c5.12,0,8.533,3.413,8.533,8.533V383C511,406.893,492.227,425.667,468.333,425.667z M16.067,357.4V383
		c0,14.507,11.093,25.6,25.6,25.6h426.667c14.507,0,25.6-11.093,25.6-25.6v-25.6H16.067z"/>
	<path d="M255,314.733c-75.093,0-136.533-61.44-136.533-136.533S179.907,41.667,255,41.667s136.533,61.44,136.533,136.533
		S330.093,314.733,255,314.733z M255,58.733c-65.707,0-119.467,53.76-119.467,119.467S189.293,297.667,255,297.667
		s119.467-53.76,119.467-119.467S320.707,58.733,255,58.733z"/>
	<path d="M331.8,229.4c-5.12,0-8.533-3.413-8.533-8.533c0-56.32-46.08-102.4-102.4-102.4c-5.12,0-8.533-3.413-8.533-8.533
		s3.413-8.533,8.533-8.533c65.707,0,119.467,53.76,119.467,119.467C340.333,225.987,336.92,229.4,331.8,229.4z"/>
	<path d="M297.667,229.4c-5.12,0-8.533-3.413-8.533-8.533c0-37.547-30.72-68.267-68.267-68.267c-5.12,0-8.533-3.413-8.533-8.533
		c0-5.12,3.413-8.533,8.533-8.533c46.933,0,85.333,38.4,85.333,85.333C306.2,225.987,302.787,229.4,297.667,229.4z"/>
	<path d="M263.533,229.4c-5.12,0-8.533-3.413-8.533-8.533c0-18.773-15.36-34.133-34.133-34.133c-5.12,0-8.533-3.413-8.533-8.533
		c0-5.12,3.413-8.533,8.533-8.533c28.16,0,51.2,23.04,51.2,51.2C272.067,225.987,268.653,229.4,263.533,229.4z"/>
	<path d="M229.4,220.867c0,5.12-3.413,8.533-8.533,8.533c-5.12,0-8.533-3.413-8.533-8.533c0-5.12,3.413-8.533,8.533-8.533
		C225.987,212.333,229.4,215.747,229.4,220.867"/>
</g>
<g>
</g>
<g>
</g>
<g>
</g>
<g>
</g>
<g>
</g>
<g>
</g>
<g>
</g>
<g>
</g>
<g>
</g>
<g>
</g>
<g>
</g>
<g>
</g>
<g>
</g>
<g>
</g>
<g>
</g>
</svg>
